<?xml version="1.0" encoding="utf-8" standalone="no"?>
<!DOCTYPE svg PUBLIC "-//W3C//DTD SVG 1.1//EN"
  "http://www.w3.org/Graphics/SVG/1.1/DTD/svg11.dtd">
<svg xmlns:xlink="http://www.w3.org/1999/xlink" width="251.64pt" height="21.96pt" viewBox="0 0 251.64 21.96" xmlns="http://www.w3.org/2000/svg" version="1.1">
 <metadata>
  <rdf:RDF xmlns:dc="http://purl.org/dc/elements/1.1/" xmlns:cc="http://creativecommons.org/ns#" xmlns:rdf="http://www.w3.org/1999/02/22-rdf-syntax-ns#">
   <cc:Work>
    <dc:type rdf:resource="http://purl.org/dc/dcmitype/StillImage"/>
    <dc:date>2026-05-14T23:14:53.644646</dc:date>
    <dc:format>image/svg+xml</dc:format>
    <dc:creator>
     <cc:Agent>
      <dc:title>Matplotlib v3.9.4, https://matplotlib.org/</dc:title>
     </cc:Agent>
    </dc:creator>
   </cc:Work>
  </rdf:RDF>
 </metadata>
 <defs>
  <style type="text/css">*{stroke-linejoin: round; stroke-linecap: butt}</style>
 </defs>
 <g id="figure_1">
  <g id="patch_1">
   <path d="M -0 21.96 
L 251.64 21.96 
L 251.64 -0 
L -0 -0 
L -0 21.96 
z
" style="fill: none; opacity: 0"/>
  </g>
  <g id="text_1">
   <!-- $\boldsymbol{x}_p + F\,(\boldsymbol{x}_{\mathrm{strain}}-\boldsymbol{x}_p) + F\,(\boldsymbol{x}_a-\boldsymbol{x}_b)$ -->
   <g style="fill: #1f242e" transform="translate(1.44 14.94) scale(0.18 -0.18)">
    <defs>
     <path id="STIXGeneral-BoldItalic-78" d="M 262 2803 
L 1318 2957 
Q 1504 2682 1619 2074 
Q 1984 2605 2192 2781 
Q 2400 2957 2630 2957 
Q 2778 2957 2890 2838 
Q 3002 2720 3002 2566 
Q 3002 2426 2896 2326 
Q 2790 2227 2643 2227 
Q 2566 2227 2457 2291 
Q 2349 2355 2278 2355 
Q 2170 2355 2006 2188 
Q 1843 2022 1690 1754 
L 1894 749 
Q 1933 563 1987 486 
Q 2042 410 2131 410 
Q 2214 410 2294 477 
Q 2374 544 2560 787 
L 2694 698 
Q 2400 275 2179 96 
Q 1958 -83 1728 -83 
Q 1491 -83 1353 137 
Q 1216 358 1107 909 
L 954 659 
Q 672 198 512 57 
Q 352 -83 115 -83 
Q -64 -83 -176 22 
Q -288 128 -288 294 
Q -288 448 -189 553 
Q -90 659 58 659 
Q 160 659 278 588 
Q 397 518 454 518 
Q 544 518 598 566 
Q 653 614 755 774 
L 1037 1229 
L 851 2202 
Q 806 2438 723 2540 
Q 640 2643 486 2643 
Q 384 2643 262 2630 
L 262 2803 
z
" transform="scale(0.015625)"/>
     <path id="Cmmi10-70" d="M -159 -1241 
Q -219 -1241 -219 -1159 
Q -197 -1019 -134 -1019 
Q 66 -1019 145 -983 
Q 225 -947 269 -800 
L 991 2081 
Q 1038 2200 1038 2388 
Q 1038 2663 850 2663 
Q 650 2663 553 2423 
Q 456 2184 366 1819 
Q 366 1778 313 1778 
L 238 1778 
Q 222 1778 203 1801 
Q 184 1825 184 1844 
Q 253 2122 317 2315 
Q 381 2509 517 2668 
Q 653 2828 856 2828 
Q 1075 2828 1240 2704 
Q 1406 2581 1453 2369 
Q 1628 2572 1840 2700 
Q 2053 2828 2278 2828 
Q 2547 2828 2745 2684 
Q 2944 2541 3044 2308 
Q 3144 2075 3144 1806 
Q 3144 1394 2933 953 
Q 2722 513 2361 220 
Q 2000 -72 1588 -72 
Q 1400 -72 1248 34 
Q 1097 141 1013 313 
L 722 -825 
Q 706 -919 703 -934 
Q 703 -1019 1125 -1019 
Q 1191 -1019 1191 -1100 
Q 1169 -1184 1155 -1212 
Q 1141 -1241 1081 -1241 
L -159 -1241 
z
M 1594 97 
Q 1816 97 2006 280 
Q 2197 463 2316 691 
Q 2403 863 2479 1111 
Q 2556 1359 2612 1640 
Q 2669 1922 2669 2088 
Q 2669 2234 2630 2362 
Q 2591 2491 2502 2577 
Q 2413 2663 2266 2663 
Q 2031 2663 1823 2495 
Q 1616 2328 1447 2081 
L 1447 2059 
L 1094 647 
Q 1138 419 1263 258 
Q 1388 97 1594 97 
z
" transform="scale(0.015625)"/>
     <path id="Cmr10-2b" d="M 481 1472 
Q 428 1472 393 1512 
Q 359 1553 359 1600 
Q 359 1647 393 1687 
Q 428 1728 481 1728 
L 2363 1728 
L 2363 3616 
Q 2363 3666 2400 3698 
Q 2438 3731 2491 3731 
Q 2538 3731 2578 3698 
Q 2619 3666 2619 3616 
L 2619 1728 
L 4500 1728 
Q 4547 1728 4581 1687 
Q 4616 1647 4616 1600 
Q 4616 1553 4581 1512 
Q 4547 1472 4500 1472 
L 2619 1472 
L 2619 -416 
Q 2619 -466 2578 -498 
Q 2538 -531 2491 -531 
Q 2438 -531 2400 -498 
Q 2363 -466 2363 -416 
L 2363 1472 
L 481 1472 
z
" transform="scale(0.015625)"/>
     <path id="Cmmi10-46" d="M 300 0 
Q 238 0 238 84 
Q 241 100 250 139 
Q 259 178 276 201 
Q 294 225 319 225 
Q 709 225 863 269 
Q 947 297 984 441 
L 1863 3956 
Q 1875 4019 1875 4044 
Q 1875 4113 1797 4122 
Q 1678 4147 1338 4147 
Q 1275 4147 1275 4231 
Q 1278 4247 1287 4286 
Q 1297 4325 1314 4348 
Q 1331 4372 1356 4372 
L 4738 4372 
Q 4800 4372 4800 4288 
L 4647 2963 
Q 4647 2944 4625 2925 
Q 4603 2906 4581 2906 
L 4525 2906 
Q 4459 2906 4459 2988 
Q 4500 3278 4500 3463 
Q 4500 3781 4362 3931 
Q 4225 4081 4015 4114 
Q 3806 4147 3438 4147 
L 2753 4147 
Q 2578 4147 2522 4117 
Q 2466 4088 2419 3928 
L 2009 2297 
L 2491 2297 
Q 2728 2297 2875 2322 
Q 3022 2347 3119 2419 
Q 3216 2491 3280 2627 
Q 3344 2763 3397 2988 
Q 3416 3047 3463 3047 
L 3519 3047 
Q 3584 3047 3584 2963 
L 3194 1381 
Q 3166 1325 3128 1325 
L 3072 1325 
Q 3009 1325 3009 1409 
Q 3025 1475 3034 1519 
Q 3044 1563 3058 1645 
Q 3072 1728 3072 1791 
Q 3072 1975 2909 2025 
Q 2747 2075 2484 2075 
L 1959 2075 
L 1544 416 
Q 1528 353 1528 353 
Q 1528 278 1575 269 
Q 1741 225 2228 225 
Q 2291 225 2291 141 
Q 2269 50 2256 25 
Q 2244 0 2181 0 
L 300 0 
z
" transform="scale(0.015625)"/>
     <path id="Cmr10-28" d="M 1984 -1588 
Q 1628 -1306 1370 -942 
Q 1113 -578 948 -165 
Q 784 247 703 697 
Q 622 1147 622 1600 
Q 622 2059 703 2509 
Q 784 2959 951 3375 
Q 1119 3791 1378 4153 
Q 1638 4516 1984 4788 
Q 1984 4800 2016 4800 
L 2075 4800 
Q 2094 4800 2109 4783 
Q 2125 4766 2125 4744 
Q 2125 4716 2113 4703 
Q 1800 4397 1592 4047 
Q 1384 3697 1257 3301 
Q 1131 2906 1075 2482 
Q 1019 2059 1019 1600 
Q 1019 -434 2106 -1491 
Q 2125 -1509 2125 -1544 
Q 2125 -1559 2108 -1579 
Q 2091 -1600 2075 -1600 
L 2016 -1600 
Q 1984 -1600 1984 -1588 
z
" transform="scale(0.015625)"/>
     <path id="Cmr10-73" d="M 213 -19 
L 213 1025 
Q 213 1075 269 1075 
L 347 1075 
Q 384 1075 397 1025 
Q 575 97 1259 97 
Q 1563 97 1767 234 
Q 1972 372 1972 659 
Q 1972 866 1812 1011 
Q 1653 1156 1434 1209 
L 1006 1294 
Q 791 1341 614 1437 
Q 438 1534 325 1695 
Q 213 1856 213 2069 
Q 213 2350 361 2529 
Q 509 2709 746 2789 
Q 984 2869 1259 2869 
Q 1588 2869 1831 2694 
L 2016 2853 
Q 2016 2869 2047 2869 
L 2094 2869 
Q 2113 2869 2128 2851 
Q 2144 2834 2144 2816 
L 2144 1978 
Q 2144 1919 2094 1919 
L 2016 1919 
Q 1959 1919 1959 1978 
Q 1959 2313 1773 2516 
Q 1588 2719 1253 2719 
Q 966 2719 755 2612 
Q 544 2506 544 2247 
Q 544 2069 695 1955 
Q 847 1841 1050 1791 
L 1484 1709 
Q 1703 1659 1892 1540 
Q 2081 1422 2192 1240 
Q 2303 1059 2303 831 
Q 2303 600 2223 429 
Q 2144 259 2001 146 
Q 1859 34 1665 -19 
Q 1472 -72 1259 -72 
Q 859 -72 575 197 
L 341 -56 
Q 341 -72 306 -72 
L 269 -72 
Q 213 -72 213 -19 
z
" transform="scale(0.015625)"/>
     <path id="Cmr10-74" d="M 653 769 
L 653 2534 
L 122 2534 
L 122 2700 
Q 541 2700 737 3090 
Q 934 3481 934 3938 
L 1119 3938 
L 1119 2759 
L 2022 2759 
L 2022 2534 
L 1119 2534 
L 1119 781 
Q 1119 516 1208 316 
Q 1297 116 1528 116 
Q 1747 116 1844 327 
Q 1941 538 1941 781 
L 1941 1159 
L 2125 1159 
L 2125 769 
Q 2125 569 2051 373 
Q 1978 178 1834 53 
Q 1691 -72 1484 -72 
Q 1100 -72 876 158 
Q 653 388 653 769 
z
" transform="scale(0.015625)"/>
     <path id="Cmr10-72" d="M 166 0 
L 166 225 
Q 384 225 525 259 
Q 666 294 666 428 
L 666 2175 
Q 666 2347 614 2423 
Q 563 2500 466 2517 
Q 369 2534 166 2534 
L 166 2759 
L 1081 2828 
L 1081 2203 
Q 1184 2481 1375 2654 
Q 1566 2828 1838 2828 
Q 2028 2828 2178 2715 
Q 2328 2603 2328 2419 
Q 2328 2303 2245 2217 
Q 2163 2131 2041 2131 
Q 1922 2131 1837 2215 
Q 1753 2300 1753 2419 
Q 1753 2591 1875 2663 
L 1838 2663 
Q 1578 2663 1414 2475 
Q 1250 2288 1181 2009 
Q 1113 1731 1113 1478 
L 1113 428 
Q 1113 225 1734 225 
L 1734 0 
L 166 0 
z
" transform="scale(0.015625)"/>
     <path id="Cmr10-61" d="M 256 628 
Q 256 1009 556 1248 
Q 856 1488 1276 1586 
Q 1697 1684 2075 1684 
L 2075 1947 
Q 2075 2131 1994 2304 
Q 1913 2478 1759 2589 
Q 1606 2700 1422 2700 
Q 997 2700 775 2509 
Q 897 2509 976 2417 
Q 1056 2325 1056 2203 
Q 1056 2075 965 1984 
Q 875 1894 750 1894 
Q 622 1894 531 1984 
Q 441 2075 441 2203 
Q 441 2541 747 2705 
Q 1053 2869 1422 2869 
Q 1681 2869 1943 2758 
Q 2206 2647 2373 2440 
Q 2541 2234 2541 1959 
L 2541 519 
Q 2541 394 2594 289 
Q 2647 184 2759 184 
Q 2866 184 2917 290 
Q 2969 397 2969 519 
L 2969 928 
L 3156 928 
L 3156 519 
Q 3156 375 3081 245 
Q 3006 116 2879 39 
Q 2753 -38 2606 -38 
Q 2419 -38 2283 107 
Q 2147 253 2131 453 
Q 2013 213 1781 70 
Q 1550 -72 1288 -72 
Q 1044 -72 808 0 
Q 572 72 414 226 
Q 256 381 256 628 
z
M 775 628 
Q 775 403 940 250 
Q 1106 97 1331 97 
Q 1538 97 1706 200 
Q 1875 303 1975 481 
Q 2075 659 2075 856 
L 2075 1522 
Q 1784 1522 1479 1426 
Q 1175 1331 975 1128 
Q 775 925 775 628 
z
" transform="scale(0.015625)"/>
     <path id="Cmr10-69" d="M 197 0 
L 197 225 
Q 416 225 556 259 
Q 697 294 697 428 
L 697 2175 
Q 697 2422 601 2478 
Q 506 2534 225 2534 
L 225 2759 
L 1147 2828 
L 1147 428 
Q 1147 294 1269 259 
Q 1391 225 1594 225 
L 1594 0 
L 197 0 
z
M 469 3928 
Q 469 4069 575 4175 
Q 681 4281 819 4281 
Q 909 4281 993 4234 
Q 1078 4188 1125 4103 
Q 1172 4019 1172 3928 
Q 1172 3791 1065 3684 
Q 959 3578 819 3578 
Q 681 3578 575 3684 
Q 469 3791 469 3928 
z
" transform="scale(0.015625)"/>
     <path id="Cmr10-6e" d="M 191 0 
L 191 225 
Q 409 225 550 259 
Q 691 294 691 428 
L 691 2175 
Q 691 2347 639 2423 
Q 588 2500 491 2517 
Q 394 2534 191 2534 
L 191 2759 
L 1119 2828 
L 1119 2203 
Q 1247 2478 1498 2653 
Q 1750 2828 2047 2828 
Q 2491 2828 2714 2615 
Q 2938 2403 2938 1966 
L 2938 428 
Q 2938 294 3078 259 
Q 3219 225 3438 225 
L 3438 0 
L 1972 0 
L 1972 225 
Q 2191 225 2331 259 
Q 2472 294 2472 428 
L 2472 1947 
Q 2472 2259 2381 2461 
Q 2291 2663 2009 2663 
Q 1638 2663 1398 2366 
Q 1159 2069 1159 1691 
L 1159 428 
Q 1159 294 1300 259 
Q 1441 225 1656 225 
L 1656 0 
L 191 0 
z
" transform="scale(0.015625)"/>
     <path id="Cmsy10-a1" d="M 653 1472 
Q 600 1472 565 1512 
Q 531 1553 531 1600 
Q 531 1647 565 1687 
Q 600 1728 653 1728 
L 4325 1728 
Q 4375 1728 4408 1687 
Q 4441 1647 4441 1600 
Q 4441 1553 4408 1512 
Q 4375 1472 4325 1472 
L 653 1472 
z
" transform="scale(0.015625)"/>
     <path id="Cmr10-29" d="M 416 -1600 
Q 359 -1600 359 -1544 
Q 359 -1516 372 -1503 
Q 1466 -434 1466 1600 
Q 1466 3634 384 4691 
Q 359 4706 359 4744 
Q 359 4766 376 4783 
Q 394 4800 416 4800 
L 475 4800 
Q 494 4800 506 4788 
Q 966 4425 1272 3906 
Q 1578 3388 1720 2800 
Q 1863 2213 1863 1600 
Q 1863 1147 1786 708 
Q 1709 269 1542 -157 
Q 1375 -584 1119 -945 
Q 863 -1306 506 -1588 
Q 494 -1600 475 -1600 
L 416 -1600 
z
" transform="scale(0.015625)"/>
     <path id="Cmmi10-61" d="M 1113 -72 
Q 709 -72 476 233 
Q 244 538 244 953 
Q 244 1363 456 1803 
Q 669 2244 1030 2536 
Q 1391 2828 1806 2828 
Q 1997 2828 2147 2725 
Q 2297 2622 2381 2444 
Q 2453 2700 2663 2700 
Q 2744 2700 2798 2651 
Q 2853 2603 2853 2522 
Q 2853 2503 2851 2493 
Q 2850 2484 2847 2472 
L 2400 684 
Q 2356 494 2356 372 
Q 2356 97 2541 97 
Q 2741 97 2845 351 
Q 2950 606 3022 941 
Q 3034 978 3072 978 
L 3150 978 
Q 3175 978 3190 956 
Q 3206 934 3206 916 
Q 3094 469 2961 198 
Q 2828 -72 2528 -72 
Q 2313 -72 2147 54 
Q 1981 181 1941 391 
Q 1528 -72 1113 -72 
z
M 1119 97 
Q 1350 97 1567 270 
Q 1784 444 1941 678 
Q 1947 684 1947 697 
L 2291 2088 
L 2297 2106 
Q 2259 2334 2132 2498 
Q 2006 2663 1791 2663 
Q 1575 2663 1389 2486 
Q 1203 2309 1075 2069 
Q 950 1813 836 1366 
Q 722 919 722 672 
Q 722 450 817 273 
Q 913 97 1119 97 
z
" transform="scale(0.015625)"/>
     <path id="Cmmi10-62" d="M 1106 -72 
Q 719 -72 503 231 
Q 288 534 288 941 
Q 288 1000 317 1173 
Q 347 1347 347 1388 
L 966 3872 
Q 991 3981 997 4044 
Q 997 4147 581 4147 
Q 519 4147 519 4231 
Q 522 4247 533 4287 
Q 544 4328 561 4350 
Q 578 4372 609 4372 
L 1472 4441 
Q 1550 4441 1550 4359 
L 1075 2472 
Q 1438 2828 1806 2828 
Q 2078 2828 2273 2684 
Q 2469 2541 2566 2306 
Q 2663 2072 2663 1806 
Q 2663 1497 2542 1167 
Q 2422 838 2209 555 
Q 1997 272 1712 100 
Q 1428 -72 1106 -72 
z
M 1119 97 
Q 1338 97 1528 280 
Q 1719 463 1838 691 
Q 1966 947 2077 1386 
Q 2188 1825 2188 2088 
Q 2188 2316 2092 2489 
Q 1997 2663 1791 2663 
Q 1559 2663 1348 2492 
Q 1138 2322 978 2088 
L 800 1363 
Q 697 959 691 716 
Q 691 475 795 286 
Q 900 97 1119 97 
z
" transform="scale(0.015625)"/>
    </defs>
    <use xlink:href="#STIXGeneral-BoldItalic-78"/>
    <use xlink:href="#Cmmi10-70" transform="translate(54.464125 -17.00625) scale(0.7)"/>
    <use xlink:href="#Cmr10-2b" transform="translate(113.605141 0)"/>
    <use xlink:href="#Cmmi10-46" transform="translate(208.849282 0)"/>
    <use xlink:href="#Cmr10-28" transform="translate(287.788376 0)"/>
    <use xlink:href="#STIXGeneral-BoldItalic-78" transform="translate(326.606736 0)"/>
    <use xlink:href="#Cmr10-73" transform="translate(381.070861 -17.00625) scale(0.7)"/>
    <use xlink:href="#Cmr10-74" transform="translate(408.653869 -17.00625) scale(0.7)"/>
    <use xlink:href="#Cmr10-72" transform="translate(435.82672 -17.00625) scale(0.7)"/>
    <use xlink:href="#Cmr10-61" transform="translate(463.20465 -17.00625) scale(0.7)"/>
    <use xlink:href="#Cmr10-69" transform="translate(498.20465 -17.00625) scale(0.7)"/>
    <use xlink:href="#Cmr10-6e" transform="translate(517.584533 -17.00625) scale(0.7)"/>
    <use xlink:href="#Cmsy10-a1" transform="translate(580.382775 0)"/>
    <use xlink:href="#STIXGeneral-BoldItalic-78" transform="translate(675.626916 0)"/>
    <use xlink:href="#Cmmi10-70" transform="translate(730.091041 -17.00625) scale(0.7)"/>
    <use xlink:href="#Cmr10-29" transform="translate(771.673463 0)"/>
    <use xlink:href="#Cmr10-2b" transform="translate(828.050416 0)"/>
    <use xlink:href="#Cmmi10-46" transform="translate(923.294557 0)"/>
    <use xlink:href="#Cmr10-28" transform="translate(1002.233651 0)"/>
    <use xlink:href="#STIXGeneral-BoldItalic-78" transform="translate(1041.052011 0)"/>
    <use xlink:href="#Cmmi10-61" transform="translate(1095.516136 -17.00625) scale(0.7)"/>
    <use xlink:href="#Cmsy10-a1" transform="translate(1156.400316 0)"/>
    <use xlink:href="#STIXGeneral-BoldItalic-78" transform="translate(1251.644457 0)"/>
    <use xlink:href="#Cmmi10-62" transform="translate(1306.108582 -17.00625) scale(0.7)"/>
    <use xlink:href="#Cmr10-29" transform="translate(1342.529871 0)"/>
   </g>
  </g>
 </g>
</svg>
