<?xml version="1.0" encoding="utf-8" standalone="no"?>
<!DOCTYPE svg PUBLIC "-//W3C//DTD SVG 1.1//EN"
  "http://www.w3.org/Graphics/SVG/1.1/DTD/svg11.dtd">
<svg xmlns:xlink="http://www.w3.org/1999/xlink" width="133.74pt" height="29.34pt" viewBox="0 0 133.74 29.34" xmlns="http://www.w3.org/2000/svg" version="1.1">
 <metadata>
  <rdf:RDF xmlns:dc="http://purl.org/dc/elements/1.1/" xmlns:cc="http://creativecommons.org/ns#" xmlns:rdf="http://www.w3.org/1999/02/22-rdf-syntax-ns#">
   <cc:Work>
    <dc:type rdf:resource="http://purl.org/dc/dcmitype/StillImage"/>
    <dc:date>2026-07-10T11:28:36.549236</dc:date>
    <dc:format>image/svg+xml</dc:format>
    <dc:creator>
     <cc:Agent>
      <dc:title>Matplotlib v3.9.4, https://matplotlib.org/</dc:title>
     </cc:Agent>
    </dc:creator>
   </cc:Work>
  </rdf:RDF>
 </metadata>
 <defs>
  <style type="text/css">*{stroke-linejoin: round; stroke-linecap: butt}</style>
 </defs>
 <g id="figure_1">
  <g id="patch_1">
   <path d="M 0 29.34 
L 133.74 29.34 
L 133.74 0 
L 0 0 
L 0 29.34 
z
" style="fill: none; opacity: 0"/>
  </g>
  <g id="text_1">
   <!-- $\hat\lambda_i=\max(\tilde\lambda_i,\ \varphi)$ -->
   <g style="fill: #1f2733" transform="translate(3.6 21.24) scale(0.18 -0.18)">
    <defs>
     <path id="Cmr10-5e" d="M 863 3444 
L 738 3578 
L 1600 4441 
L 2456 3578 
L 2328 3444 
L 1600 4084 
L 863 3444 
z
" transform="scale(0.015625)"/>
     <path id="Cmmi10-b8" d="M 325 109 
Q 325 203 409 288 
L 2209 2053 
L 1575 3834 
Q 1500 4038 1417 4156 
Q 1334 4275 1178 4275 
Q 1106 4275 1106 4359 
Q 1113 4397 1138 4419 
Q 1163 4441 1203 4441 
Q 1875 4441 2016 4044 
L 3316 416 
Q 3400 144 3488 50 
Q 3519 3 3519 -13 
Q 3519 -72 3469 -72 
L 3122 -72 
Q 2963 -25 2869 206 
L 2284 1844 
L 738 25 
Q 622 -84 531 -84 
Q 450 -84 387 -28 
Q 325 28 325 109 
z
" transform="scale(0.015625)"/>
     <path id="Cmmi10-69" d="M 500 459 
Q 500 578 550 709 
L 1069 2088 
Q 1153 2322 1153 2472 
Q 1153 2663 1013 2663 
Q 759 2663 595 2402 
Q 431 2141 353 1819 
Q 341 1778 300 1778 
L 225 1778 
Q 172 1778 172 1838 
L 172 1856 
Q 275 2238 487 2533 
Q 700 2828 1025 2828 
Q 1253 2828 1411 2678 
Q 1569 2528 1569 2297 
Q 1569 2178 1516 2047 
L 997 672 
Q 909 459 909 288 
Q 909 97 1056 97 
Q 1306 97 1473 364 
Q 1641 631 1709 941 
Q 1722 978 1759 978 
L 1838 978 
Q 1863 978 1878 961 
Q 1894 944 1894 922 
Q 1894 916 1888 903 
Q 1800 541 1583 234 
Q 1366 -72 1044 -72 
Q 819 -72 659 83 
Q 500 238 500 459 
z
M 1222 3878 
Q 1222 4013 1334 4122 
Q 1447 4231 1581 4231 
Q 1691 4231 1761 4164 
Q 1831 4097 1831 3994 
Q 1831 3850 1717 3742 
Q 1603 3634 1466 3634 
Q 1363 3634 1292 3704 
Q 1222 3775 1222 3878 
z
" transform="scale(0.015625)"/>
     <path id="Cmr10-3d" d="M 481 850 
Q 428 850 393 890 
Q 359 931 359 978 
Q 359 1031 393 1068 
Q 428 1106 481 1106 
L 4500 1106 
Q 4547 1106 4581 1068 
Q 4616 1031 4616 978 
Q 4616 931 4581 890 
Q 4547 850 4500 850 
L 481 850 
z
M 481 2094 
Q 428 2094 393 2131 
Q 359 2169 359 2222 
Q 359 2269 393 2309 
Q 428 2350 481 2350 
L 4500 2350 
Q 4547 2350 4581 2309 
Q 4616 2269 4616 2222 
Q 4616 2169 4581 2131 
Q 4547 2094 4500 2094 
L 481 2094 
z
" transform="scale(0.015625)"/>
     <path id="Cmr10-6d" d="M 191 0 
L 191 225 
Q 409 225 550 259 
Q 691 294 691 428 
L 691 2175 
Q 691 2347 639 2423 
Q 588 2500 491 2517 
Q 394 2534 191 2534 
L 191 2759 
L 1119 2828 
L 1119 2203 
Q 1247 2478 1498 2653 
Q 1750 2828 2047 2828 
Q 2784 2828 2913 2228 
Q 3041 2497 3287 2662 
Q 3534 2828 3828 2828 
Q 4119 2828 4317 2734 
Q 4516 2641 4616 2448 
Q 4716 2256 4716 1966 
L 4716 428 
Q 4716 294 4858 259 
Q 5000 225 5216 225 
L 5216 0 
L 3750 0 
L 3750 225 
Q 3969 225 4109 259 
Q 4250 294 4250 428 
L 4250 1947 
Q 4250 2269 4159 2466 
Q 4069 2663 3788 2663 
Q 3419 2663 3178 2366 
Q 2938 2069 2938 1691 
L 2938 428 
Q 2938 294 3078 259 
Q 3219 225 3438 225 
L 3438 0 
L 1972 0 
L 1972 225 
Q 2191 225 2331 259 
Q 2472 294 2472 428 
L 2472 1947 
Q 2472 2259 2381 2461 
Q 2291 2663 2009 2663 
Q 1638 2663 1398 2366 
Q 1159 2069 1159 1691 
L 1159 428 
Q 1159 294 1300 259 
Q 1441 225 1656 225 
L 1656 0 
L 191 0 
z
" transform="scale(0.015625)"/>
     <path id="Cmr10-61" d="M 256 628 
Q 256 1009 556 1248 
Q 856 1488 1276 1586 
Q 1697 1684 2075 1684 
L 2075 1947 
Q 2075 2131 1994 2304 
Q 1913 2478 1759 2589 
Q 1606 2700 1422 2700 
Q 997 2700 775 2509 
Q 897 2509 976 2417 
Q 1056 2325 1056 2203 
Q 1056 2075 965 1984 
Q 875 1894 750 1894 
Q 622 1894 531 1984 
Q 441 2075 441 2203 
Q 441 2541 747 2705 
Q 1053 2869 1422 2869 
Q 1681 2869 1943 2758 
Q 2206 2647 2373 2440 
Q 2541 2234 2541 1959 
L 2541 519 
Q 2541 394 2594 289 
Q 2647 184 2759 184 
Q 2866 184 2917 290 
Q 2969 397 2969 519 
L 2969 928 
L 3156 928 
L 3156 519 
Q 3156 375 3081 245 
Q 3006 116 2879 39 
Q 2753 -38 2606 -38 
Q 2419 -38 2283 107 
Q 2147 253 2131 453 
Q 2013 213 1781 70 
Q 1550 -72 1288 -72 
Q 1044 -72 808 0 
Q 572 72 414 226 
Q 256 381 256 628 
z
M 775 628 
Q 775 403 940 250 
Q 1106 97 1331 97 
Q 1538 97 1706 200 
Q 1875 303 1975 481 
Q 2075 659 2075 856 
L 2075 1522 
Q 1784 1522 1479 1426 
Q 1175 1331 975 1128 
Q 775 925 775 628 
z
" transform="scale(0.015625)"/>
     <path id="Cmr10-78" d="M 78 0 
L 78 225 
Q 322 225 537 320 
Q 753 416 903 603 
L 1484 1344 
L 728 2328 
Q 616 2469 483 2501 
Q 350 2534 109 2534 
L 109 2759 
L 1441 2759 
L 1441 2534 
Q 1356 2534 1282 2496 
Q 1209 2459 1209 2388 
Q 1209 2363 1228 2328 
L 1741 1663 
L 2125 2156 
Q 2203 2250 2203 2344 
Q 2203 2422 2151 2478 
Q 2100 2534 2016 2534 
L 2016 2759 
L 3194 2759 
L 3194 2534 
Q 2947 2534 2730 2439 
Q 2513 2344 2363 2156 
L 1856 1509 
L 2675 428 
Q 2797 288 2928 256 
Q 3059 225 3303 225 
L 3303 0 
L 1972 0 
L 1972 225 
Q 2050 225 2122 262 
Q 2194 300 2194 372 
Q 2194 400 2175 428 
L 1600 1191 
L 1141 603 
Q 1069 522 1069 416 
Q 1069 338 1122 281 
Q 1175 225 1247 225 
L 1247 0 
L 78 0 
z
" transform="scale(0.015625)"/>
     <path id="Cmr10-28" d="M 1984 -1588 
Q 1628 -1306 1370 -942 
Q 1113 -578 948 -165 
Q 784 247 703 697 
Q 622 1147 622 1600 
Q 622 2059 703 2509 
Q 784 2959 951 3375 
Q 1119 3791 1378 4153 
Q 1638 4516 1984 4788 
Q 1984 4800 2016 4800 
L 2075 4800 
Q 2094 4800 2109 4783 
Q 2125 4766 2125 4744 
Q 2125 4716 2113 4703 
Q 1800 4397 1592 4047 
Q 1384 3697 1257 3301 
Q 1131 2906 1075 2482 
Q 1019 2059 1019 1600 
Q 1019 -434 2106 -1491 
Q 2125 -1509 2125 -1544 
Q 2125 -1559 2108 -1579 
Q 2091 -1600 2075 -1600 
L 2016 -1600 
Q 1984 -1600 1984 -1588 
z
" transform="scale(0.015625)"/>
     <path id="Cmr10-7e" d="M 531 3769 
L 716 3988 
Q 966 4275 1216 4275 
Q 1338 4275 1483 4203 
Q 1628 4131 1773 4059 
Q 1919 3988 2041 3988 
Q 2297 3988 2534 4275 
L 2663 4166 
L 2478 3950 
Q 2225 3659 1978 3659 
Q 1856 3659 1711 3732 
Q 1566 3806 1420 3878 
Q 1275 3950 1153 3950 
Q 897 3950 659 3659 
L 531 3769 
z
" transform="scale(0.015625)"/>
     <path id="Cmmi10-3b" d="M 634 -1153 
Q 634 -1125 659 -1100 
Q 891 -878 1019 -587 
Q 1147 -297 1147 25 
L 1147 103 
Q 1044 0 891 0 
Q 744 0 641 103 
Q 538 206 538 353 
Q 538 503 641 603 
Q 744 703 891 703 
Q 1119 703 1216 492 
Q 1313 281 1313 25 
Q 1313 -331 1170 -651 
Q 1028 -972 769 -1228 
Q 744 -1241 728 -1241 
Q 697 -1241 665 -1212 
Q 634 -1184 634 -1153 
z
" transform="scale(0.015625)"/>
     <path id="Cmmi10-27" d="M 1044 -1216 
Q 1044 -1191 1056 -1141 
L 1416 -13 
Q 938 106 628 428 
Q 319 750 319 1216 
Q 319 1450 406 1744 
Q 494 2038 631 2302 
Q 769 2566 928 2741 
Q 966 2759 972 2759 
L 1050 2759 
Q 1069 2759 1084 2740 
Q 1100 2722 1100 2700 
Q 1100 2675 1088 2663 
Q 981 2547 879 2380 
Q 778 2213 698 2028 
Q 619 1844 566 1641 
Q 513 1438 513 1288 
Q 513 909 814 676 
Q 1116 444 1528 366 
L 1709 941 
Q 1828 1313 1945 1605 
Q 2063 1897 2239 2176 
Q 2416 2456 2666 2642 
Q 2916 2828 3225 2828 
Q 3469 2828 3633 2706 
Q 3797 2584 3876 2381 
Q 3956 2178 3956 1947 
Q 3956 1566 3787 1202 
Q 3619 838 3325 548 
Q 3031 259 2662 93 
Q 2294 -72 1919 -72 
Q 1869 -69 1811 -66 
Q 1753 -63 1716 -63 
L 1503 -1178 
Q 1484 -1272 1407 -1333 
Q 1331 -1394 1234 -1394 
Q 1156 -1394 1100 -1345 
Q 1044 -1297 1044 -1216 
z
M 1784 331 
Q 1856 325 1991 325 
Q 2388 325 2798 520 
Q 3209 716 3479 1056 
Q 3750 1397 3750 1797 
Q 3750 1978 3676 2122 
Q 3603 2266 3470 2348 
Q 3338 2431 3163 2431 
Q 2666 2431 2331 1950 
Q 1997 1469 1894 916 
L 1784 331 
z
" transform="scale(0.015625)"/>
     <path id="Cmr10-29" d="M 416 -1600 
Q 359 -1600 359 -1544 
Q 359 -1516 372 -1503 
Q 1466 -434 1466 1600 
Q 1466 3634 384 4691 
Q 359 4706 359 4744 
Q 359 4766 376 4783 
Q 394 4800 416 4800 
L 475 4800 
Q 494 4800 506 4788 
Q 966 4425 1272 3906 
Q 1578 3388 1720 2800 
Q 1863 2213 1863 1600 
Q 1863 1147 1786 708 
Q 1709 269 1542 -157 
Q 1375 -584 1119 -945 
Q 863 -1306 506 -1588 
Q 494 -1600 475 -1600 
L 416 -1600 
z
" transform="scale(0.015625)"/>
    </defs>
    <use xlink:href="#Cmr10-5e" transform="translate(5.941406 28.609375)"/>
    <use xlink:href="#Cmmi10-b8" transform="translate(0 0.53125)"/>
    <use xlink:href="#Cmmi10-69" transform="translate(62.764922 -16.475) scale(0.7)"/>
    <use xlink:href="#Cmr10-3d" transform="translate(110.797539 0.53125)"/>
    <use xlink:href="#Cmr10-6d" transform="translate(206.04168 0.53125)"/>
    <use xlink:href="#Cmr10-61" transform="translate(289.342461 0.53125)"/>
    <use xlink:href="#Cmr10-78" transform="translate(339.342461 0.53125)"/>
    <use xlink:href="#Cmr10-28" transform="translate(392.028008 0.53125)"/>
    <use xlink:href="#Cmr10-7e" transform="translate(437.022148 25.25)"/>
    <use xlink:href="#Cmmi10-b8" transform="translate(430.846367 0.53125)"/>
    <use xlink:href="#Cmmi10-69" transform="translate(493.611289 -16.475) scale(0.7)"/>
    <use xlink:href="#Cmmi10-3b" transform="translate(524.085312 0.53125)"/>
    <use xlink:href="#Cmmi10-27" transform="translate(598.593483 0.53125)"/>
    <use xlink:href="#Cmr10-29" transform="translate(663.974343 0.53125)"/>
   </g>
  </g>
 </g>
</svg>
